<svg width="96" height="96" viewBox="0 0 96 96" fill="none" xmlns="http://www.w3.org/2000/svg">
  <defs>
    <linearGradient id="wwg" x1="0" y1="0" x2="1" y2="1">
      <stop offset="0%" stop-color="#0a3d8f"/>
      <stop offset="52%" stop-color="#1273d2"/>
      <stop offset="100%" stop-color="#23a455"/>
    </linearGradient>
  </defs>
  <rect x="2" y="2" width="92" height="92" rx="21" fill="url(#wwg)"/>
  <path d="M29 35 Q26 62 36 63 Q44 63 48 44" stroke="#fff" stroke-width="8.5" stroke-linecap="round" fill="none"/>
  <path d="M67 35 Q70 62 60 63 Q52 63 48 44" stroke="#fff" stroke-width="8.5" stroke-linecap="round" fill="none"/>
  <rect x="22" y="23" width="14" height="15" rx="3.5" fill="#fff" transform="rotate(-12 29 30)"/>
  <rect x="60" y="23" width="14" height="15" rx="3.5" fill="#fff" transform="rotate(12 67 30)"/>
  <rect x="24.5" y="13.5" width="3.4" height="8" rx="1.7" fill="#ffd23f" transform="rotate(-12 26 17)"/>
  <rect x="30.5" y="12.5" width="3.4" height="8" rx="1.7" fill="#ffd23f" transform="rotate(-12 32 16)"/>
  <rect x="62.5" y="12.5" width="3.4" height="8" rx="1.7" fill="#ffd23f" transform="rotate(12 64 16)"/>
  <rect x="68.5" y="13.5" width="3.4" height="8" rx="1.7" fill="#ffd23f" transform="rotate(12 70 17)"/>
  <path d="M52 21 L40 42 L46.5 42 L42 58 L57 35 L50 35 L54.5 21 Z" fill="#fff"/>
  <path d="M30 71 Q48 80 66 71" stroke="#fff" stroke-width="2.6" stroke-linecap="round" opacity="0.85" fill="none"/>
  <path d="M35 77 Q48 83.5 61 77" stroke="#fff" stroke-width="2" stroke-linecap="round" opacity="0.5" fill="none"/>
</svg>
